<?xml version="1.0" standalone="no"?><!DOCTYPE svg PUBLIC "-//W3C//DTD SVG 1.1//EN" "http://www.w3.org/Graphics/SVG/1.1/DTD/svg11.dtd"><svg t="1508483054559" class="icon" style="" viewBox="0 0 1024 1024" version="1.1" xmlns="http://www.w3.org/2000/svg" p-id="2382" xmlns:xlink="http://www.w3.org/1999/xlink" width="200" height="200"><defs><style type="text/css"></style></defs><path d="M510.607 959.067c-225.229 0-350.93-49.612-350.93-132.859 0-47.97 72.847-89.986 173.682-113.348l23.837 41.646c-85.92 14.931-141.283 41.425-141.283 71.693 0 46.707 142.14 76.74 294.695 76.74 152.563 0 294.702-30.034 294.702-76.74 0-30.267-55.365-56.762-141.283-71.693l23.837-41.646c100.835 23.362 173.671 65.379 173.671 113.348-0.002 81.288-132.844 132.86-350.928 132.86z m233.387-406.14c-8.19 8.89-201.998 234.4-201.998 234.4-8.124 9.875-17.022 16.753-26.647 16.753-9.633 0-16.897-7.701-24.277-16.753 0 0-218.564-238.92-222.266-244.104-3.71-5.186-8.773-11.787-12.839-18.593-28.791-46.177-47.883-99.03-47.883-157.429 0-166.79 135.442-301.988 302.524-301.988 167.08 0 302.533 135.198 302.533 301.988 0 60.228-17.898 116.174-48.396 163.24-8.368 10.99-16.284 18.039-20.75 22.485zM510.607 121.264c-136.895 0-247.874 110.777-247.874 247.43 0 45.108 14.795 85.554 37.408 118.478 7.455 11.8 30.794 39.335 30.794 39.335L517.489 733.98l169.984-201.72s8.966-10.626 19.685-26.135c27.387-39.596 51.32-82.938 51.32-137.43 0.001-136.653-110.968-247.43-247.871-247.43z m0 362.47c-64.483 0-116.751-52.181-116.751-116.534 0-64.369 52.27-116.55 116.75-116.55 64.485 0 116.75 52.181 116.75 116.55-0.001 64.352-52.27 116.533-116.75 116.533z m0-176.943c-33.414 0-60.507 27.052-60.507 60.408 0 33.341 27.097 60.392 60.507 60.392 33.416 0 60.508-27.05 60.508-60.392-0.001-33.362-27.092-60.408-60.508-60.408z m0 0" p-id="2383" fill="#59607b"></path></svg>