<?xml version="1.0" standalone="no"?><!DOCTYPE svg PUBLIC "-//W3C//DTD SVG 1.1//EN" "http://www.w3.org/Graphics/SVG/1.1/DTD/svg11.dtd"><svg t="1505980995079" class="icon" style="" viewBox="0 0 1024 1024" version="1.1" xmlns="http://www.w3.org/2000/svg" p-id="1723" xmlns:xlink="http://www.w3.org/1999/xlink" width="200" height="200"><defs><style type="text/css"></style></defs><path d="M792.576 925.184H241.152c-40.448 0-73.728-32.768-73.728-73.728V172.544c0-40.448 32.768-73.728 73.728-73.728h432.64l192.512 192.512v560.128c0 40.448-33.28 73.728-73.728 73.728zM241.152 144.896c-15.36 0-27.648 12.288-27.648 27.648v678.912c0 15.36 12.288 27.648 27.648 27.648h551.424c15.36 0 27.648-12.288 27.648-27.648V310.272l-165.888-165.888H241.152z" p-id="1724" fill="#59607b"></path><path d="M843.264 324.096h-145.408c-31.232 0-56.832-25.6-56.832-56.832V121.856h46.08v145.408c0 5.632 5.12 10.752 10.752 10.752h145.408v46.08zM543.744 379.904H345.6c-12.8 0-23.04-10.24-23.04-23.04s10.24-23.04 23.04-23.04h198.144c12.8 0 23.04 10.24 23.04 23.04s-10.24 23.04-23.04 23.04zM687.616 541.184H345.6c-12.8 0-23.04-10.24-23.04-23.04s10.24-23.04 23.04-23.04h342.016c12.8 0 23.04 10.24 23.04 23.04s-10.24 23.04-23.04 23.04zM687.616 697.344H345.6c-12.8 0-23.04-10.24-23.04-23.04s10.24-23.04 23.04-23.04h342.016c12.8 0 23.04 10.24 23.04 23.04s-10.24 23.04-23.04 23.04z" p-id="1725" fill="#59607b"></path></svg>