<?xml version="1.0" standalone="no"?><!DOCTYPE svg PUBLIC "-//W3C//DTD SVG 1.1//EN" "http://www.w3.org/Graphics/SVG/1.1/DTD/svg11.dtd"><svg t="1508483560774" class="icon" style="" viewBox="0 0 1024 1024" version="1.1" xmlns="http://www.w3.org/2000/svg" p-id="6861" xmlns:xlink="http://www.w3.org/1999/xlink" width="200" height="200"><defs><style type="text/css"></style></defs><path d="M861.312 488.64L543.104 170.176a39.04 39.04 0 0 0-28.16-11.648c-1.344-0.064-2.56-0.768-3.968-0.768a39.488 39.488 0 0 0-16 3.52 39.488 39.488 0 0 0-13.632 8.768L162.752 488.384a39.104 39.104 0 0 0 0 55.488 39.168 39.168 0 0 0 55.616 0.128l253.376-253.184v692.288a39.168 39.168 0 1 0 78.464 0V288.896l255.36 254.976a39.424 39.424 0 0 0 55.68 0.128 38.976 38.976 0 0 0 0.064-55.36zM944.32 80.256H79.744a39.232 39.232 0 1 1 0-78.592h864.64a39.296 39.296 0 0 1-0.064 78.592z" fill="#59607b" p-id="6862"></path></svg>