<?xml version="1.0" standalone="no"?><!DOCTYPE svg PUBLIC "-//W3C//DTD SVG 1.1//EN" "http://www.w3.org/Graphics/SVG/1.1/DTD/svg11.dtd"><svg t="1505903385271" class="icon" style="" viewBox="0 0 1024 1024" version="1.1" xmlns="http://www.w3.org/2000/svg" p-id="18359" xmlns:xlink="http://www.w3.org/1999/xlink" width="200" height="200"><defs><style type="text/css"></style></defs><path d="M932.087808 580.64896c-18.561024 0-33.734656 15.106048-33.83296 33.900544l0 245.327872c0 20.518912-16.635904 37.220352-37.087232 37.220352L151.875584 897.097728c-20.453376 0-37.087232-16.70144-37.087232-37.220352l0-611.147776c0-20.518912 16.633856-37.220352 37.087232-37.220352l332.118016 0c18.593792-0.034816 33.734656-15.239168 33.734656-33.898496 0-18.694144-15.140864-33.900544-33.767424-33.900544L147.15904 143.710208c-55.148544 0-100.038656 44.988416-100.038656 100.27008l0 620.609536c0 55.281664 44.890112 100.27008 100.038656 100.27008l718.723072 0c55.148544 0 100.036608-44.988416 100.036608-100.27008l0-250.243072C965.818368 595.755008 950.646784 580.64896 932.087808 580.64896zM1006.094336 301.217792l0-0.362496L773.748736 67.811328l-7.340032-7.139328-0.929792 0.96256c-5.144576-2.88768-10.954752-4.417536-16.965632-4.417536-19.357696 0-35.096576 15.771648-35.096576 35.160064 0 6.0416 1.52576 11.853824 4.417536 17.000448l-1.030144 1.062912 161.759232 162.19136-166.01088 0.065536c-270.297088 33.69984-336.666624 200.937472-356.222976 460.576768 0 19.392512 15.736832 35.160064 35.09248 35.160064 15.804416 0 29.216768-10.524672 33.601536-24.967168l1.593344-9.330688c20.553728-245.561344 68.960256-366.71488 287.197184-391.084032l164.749312 0-154.587136 155.019264-6.275072 8.830976c-2.226176 4.681728-3.387392 10.391552-3.387392 15.572992 0 19.388416 15.736832 35.160064 35.09248 35.160064 5.511168 0 11.587584-1.327104 16.467968-3.85024l239.230976-238.249984c2.121728-1.488896 4.72064-5.16096 4.72064-7.950336C1009.829888 304.799744 1008.216064 302.706688 1006.094336 301.217792z" p-id="18360" fill="#59607b"></path></svg>