<?xml version="1.0" standalone="no"?><!DOCTYPE svg PUBLIC "-//W3C//DTD SVG 1.1//EN" "http://www.w3.org/Graphics/SVG/1.1/DTD/svg11.dtd"><svg t="1505981103585" class="icon" style="" viewBox="0 0 1294 1024" version="1.1" xmlns="http://www.w3.org/2000/svg" p-id="2736" xmlns:xlink="http://www.w3.org/1999/xlink" width="252.734375" height="200"><defs><style type="text/css"></style></defs><path d="M923.899342 318.934572H208.823848a138.15873 138.15873 0 0 0-138.010066 138.010066v429.045296a138.15873 138.15873 0 0 0 138.010066 138.010066h715.075494a138.15873 138.15873 0 0 0 138.010066-138.010066V456.944638a138.15873 138.15873 0 0 0-138.010066-138.010066z m76.512582 377.805653v189.249709a76.611692 76.611692 0 0 1-76.512582 76.512582H208.823848a76.611692 76.611692 0 0 1-76.512582-76.512582V456.944638a76.611692 76.611692 0 0 1 76.512582-76.512582h715.075494a76.611692 76.611692 0 0 1 76.512582 76.512582z" p-id="2737" fill="#59607b"></path><path d="M1105.418506 157.931088H309.717383a30.773519 30.773519 0 0 0 0 61.497483h795.701123a76.512582 76.512582 0 0 1 76.512582 76.512583V505.458769a30.723964 30.723964 0 0 0 61.497483 0V295.941154a138.010066 138.010066 0 0 0-138.010065-138.010066zM492.128533 63.628339h769.982191a31.665505 31.665505 0 0 0 32.309717-30.723964c0-18.682153-12.686024-30.773519-32.309717-30.773519H492.128533c-19.821913 0-32.309717 12.091367-32.309718 30.773519s12.686024 30.723964 32.309718 30.723964z" p-id="2738" fill="#59607b"></path></svg>