<?xml version="1.0" standalone="no"?><!DOCTYPE svg PUBLIC "-//W3C//DTD SVG 1.1//EN" "http://www.w3.org/Graphics/SVG/1.1/DTD/svg11.dtd"><svg t="1505902856922" class="icon" style="" viewBox="0 0 1024 1024" version="1.1" xmlns="http://www.w3.org/2000/svg" p-id="6548" xmlns:xlink="http://www.w3.org/1999/xlink" width="200" height="200"><defs><style type="text/css"></style></defs><path d="M937.69728 956.33408L800.58368 819.2a258.74432 258.74432 0 0 0 41.32864-140.82048c0-143.7696-116.61312-260.4032-260.352-260.4032-143.74912 0-260.352 116.6336-260.352 260.4032s116.60288 260.4032 260.352 260.4032c67.60448 0 129.1264-25.76384 175.49312-68.0448l133.12 133.15072a33.60768 33.60768 0 0 0 23.7568 9.8816 33.1776 33.1776 0 0 0 23.76704-9.8816 33.5872 33.5872 0 0 0 0-47.54432z m-356.1472-84.86912a191.75424 191.75424 0 0 1-136.47872-56.58624 191.83616 191.83616 0 0 1-56.576-136.50944c0-51.53792 20.09088-100.02432 56.576-136.51968a191.75424 191.75424 0 0 1 136.48896-56.58624c51.51744 0 99.9936 20.09088 136.47872 56.58624a191.83616 191.83616 0 0 1 56.576 136.51968c0 51.52768-20.08064 100.01408-56.576 136.50944a191.56992 191.56992 0 0 1-136.47872 56.58624z" fill="#59607b" p-id="6549"></path><path d="M327.34208 880.10752H138.71104v-740.9664h414.75072V295.1168a33.5872 33.5872 0 0 0 33.51552 33.73056h156.0576v45.1072a33.5872 33.5872 0 0 0 33.51552 33.73056 33.5872 33.5872 0 0 0 33.51552-33.73056V252.96896c0-8.96-3.56352-17.60256-9.84064-23.92064l-69.23264-69.57056-0.1024-0.1024-78.44864-77.99808A33.52576 33.52576 0 0 0 628.86912 71.68h-523.6736A33.5872 33.5872 0 0 0 71.68 105.41056V913.8176a33.5872 33.5872 0 0 0 33.51552 33.73056h222.14656a33.5872 33.5872 0 0 0 33.51552-33.73056 33.5872 33.5872 0 0 0-33.51552-33.72032z m356.41344-672.768l53.83168 53.9648H620.4928V144.49664l63.26272 62.8224z" fill="#59607b" p-id="6550"></path></svg>