<?xml version="1.0" standalone="no"?><!DOCTYPE svg PUBLIC "-//W3C//DTD SVG 1.1//EN" "http://www.w3.org/Graphics/SVG/1.1/DTD/svg11.dtd"><svg t="1505903049976" class="icon" style="" viewBox="0 0 1024 1024" version="1.1" xmlns="http://www.w3.org/2000/svg" p-id="11408" xmlns:xlink="http://www.w3.org/1999/xlink" width="200" height="200"><defs><style type="text/css"></style></defs><path d="M755.03616 608.62464l-145.26464-244.46976a121.07776 121.07776 0 0 0 21.74976-69.40672c0-66.68288-53.51424-120.68864-119.45984-120.68864s-119.54176 54.00576-119.54176 120.68864c0 25.82528 8.0896 49.7664 21.77024 69.40672l-145.2032 244.46976c-64.14336 2.12992-115.5072 55.27552-115.5072 120.6272 0 66.68288 53.53472 120.68864 119.45984 120.68864 65.96608 0 119.48032-54.08768 119.48032-120.68864a120.60672 120.60672 0 0 0-73.27744-111.32928L449.9456 397.9264c18.08384 11.10016 39.3216 17.5104 62.03392 17.5104 22.7328 0 43.95008-6.41024 62.0544-17.5104l130.68288 219.99616a120.70912 120.70912 0 0 0-73.25696 111.32928c0 66.68288 53.51424 120.68864 119.45984 120.68864S870.4 795.8528 870.4 729.25184c0.08192-65.35168-51.3024-118.51776-115.36384-120.6272z m-410.29632 120.60672c0 39.936-32.13312 72.41728-71.70048 72.41728-39.54688 0-71.68-32.48128-71.68-72.41728 0-39.95648 32.13312-72.43776 71.68-72.43776 39.56736 0 71.70048 32.48128 71.70048 72.43776z m167.3216-362.12736c-39.54688 0-71.70048-32.4608-71.70048-72.41728s32.1536-72.41728 71.70048-72.41728 71.70048 32.4608 71.70048 72.41728-32.21504 72.41728-71.70048 72.41728zM751.0016 801.66912c-39.56736 0-71.70048-32.48128-71.70048-72.41728 0-39.95648 32.13312-72.43776 71.70048-72.43776 39.54688 0 71.70048 32.48128 71.70048 72.43776 0 39.936-32.1536 72.41728-71.70048 72.41728z" p-id="11409" fill="#59607b"></path><path d="M392.51968 705.06496v48.3328h239.0016v-48.3328h-239.0016z" p-id="11410" fill="#59607b"></path></svg>