<?xml version="1.0" standalone="no"?><!DOCTYPE svg PUBLIC "-//W3C//DTD SVG 1.1//EN" "http://www.w3.org/Graphics/SVG/1.1/DTD/svg11.dtd"><svg t="1505981205061" class="icon" style="" viewBox="0 0 1024 1024" version="1.1" xmlns="http://www.w3.org/2000/svg" p-id="3729" xmlns:xlink="http://www.w3.org/1999/xlink" width="200" height="200"><defs><style type="text/css"></style></defs><path d="M946.002578 492.726028 72.16253 492.726028c-14.410198 0-26.086122 11.676947-26.086122 26.086122 0 14.398942 11.676947 26.081005 26.086122 26.081005l873.834932 0c14.405081 0 26.086122-11.682064 26.086122-26.081005C972.083583 504.401951 960.40152 492.726028 946.002578 492.726028L946.002578 492.726028 946.002578 492.726028zM923.238109 649.233548c-14.405081 0-26.086122 11.682064-26.086122 26.086122 0 0.220011 0.060375 0.430812 0.065492 0.650823l0 214.497259c0 12.701277-3.778046 16.479323-16.474206 16.479323L666.886603 906.947074c-0.441045-0.019443-0.855484-0.12689-1.301645-0.12689-14.405081 0-26.086122 11.676947-26.086122 26.081005 0 14.403035 11.682064 26.086122 26.086122 26.086122l257.586636 0c14.403035 0 26.086122-11.683087 26.086122-26.086122L949.257715 675.970492c0.005117-0.220011 0.060375-0.430812 0.060375-0.650823C949.31809 660.909471 937.642167 649.233548 923.238109 649.233548L923.238109 649.233548 923.238109 649.233548zM352.568894 906.820184c-0.445138 0-0.855484 0.107447-1.301645 0.12689L137.415696 906.947074c-12.701277 0-16.479323-3.77293-16.479323-16.474206L120.936373 676.621315c0.019443-0.441045 0.13303-0.856507 0.13303-1.301645 0-14.410198-11.676947-26.086122-26.085098-26.086122-14.410198 0-26.086122 11.676947-26.086122 26.086122l0 257.586636c0 14.403035 11.675924 26.081005 26.086122 26.081005l257.585613 0c14.405081 0 26.086122-11.672854 26.086122-26.081005C378.656039 918.497131 366.973976 906.820184 352.568894 906.820184L352.568894 906.820184 352.568894 906.820184zM94.983281 388.385635c14.408151 0 26.085098-11.676947 26.085098-26.081005 0-0.446162-0.107447-0.865717-0.13303-1.306762L120.93535 147.150408c0-12.701277 3.778046-16.479323 16.48444-16.479323l213.857692 0c0.441045 0.019443 0.851391 0.12689 1.291412 0.12689 14.410198 0 26.086122-11.676947 26.086122-26.081005 0-14.408151-11.676947-26.086122-26.086122-26.086122L94.983281 78.630848C80.579223 78.630848 68.902276 90.308819 68.902276 104.717993l0 257.586636C68.89716 376.708688 80.574107 388.385635 94.983281 388.385635L94.983281 388.385635 94.983281 388.385635zM665.584957 130.798998c0.451278 0 0.860601-0.107447 1.296529-0.12689L880.743272 130.672108c12.69616 0 16.479323 3.778046 16.479323 16.479323l0 214.497259c-0.005117 0.226151-0.070608 0.430812-0.070608 0.655939 0 14.398942 11.682064 26.081005 26.086122 26.081005 14.409175 0 26.085098-11.682064 26.085098-26.081005 0-0.226151-0.060375-0.430812-0.065492-0.655939L949.257715 104.717993c0-14.408151-11.67797-26.086122-26.086122-26.086122l-257.586636 0c-14.398942 0-26.081005 11.67797-26.081005 26.086122C639.503952 119.122051 651.184993 130.798998 665.584957 130.798998L665.584957 130.798998 665.584957 130.798998zM665.584957 130.798998" p-id="3730" fill="#59607b"></path></svg>