<?xml version="1.0" standalone="no"?><!DOCTYPE svg PUBLIC "-//W3C//DTD SVG 1.1//EN" "http://www.w3.org/Graphics/SVG/1.1/DTD/svg11.dtd"><svg t="1508484457701" class="icon" style="" viewBox="0 0 1024 1024" version="1.1" xmlns="http://www.w3.org/2000/svg" p-id="7232" xmlns:xlink="http://www.w3.org/1999/xlink" width="200" height="200"><defs><style type="text/css"></style></defs><path d="M266.091 370.684l480.556 0 0 56.536-480.556 0 0-56.536Z" p-id="7233" fill="#59607b"></path><path d="M266.091 540.305l106.85 0 0 56.536-106.85 0 0-56.536Z" p-id="7234" fill="#59607b"></path><path d="M266.091 709.922l213.7 0 0 56.536-213.7 0 0-56.536Z" p-id="7235" fill="#59607b"></path><path d="M590.786479 726.480929l375.919109-375.919109 39.976606 39.976606-375.919109 375.919109-39.976606-39.976606Z" p-id="7236" fill="#59607b"></path><path d="M472.906043 530.74255l195.853265 195.853265-39.852863 39.852863-195.853265-195.853265 39.852863-39.852863Z" p-id="7237" fill="#59607b"></path><path d="M944.528 550.138l0 371.743c0 23.32-19.082 42.402-42.402 42.402L110.613 964.283c-23.326 0-42.402-19.082-42.402-42.402L68.211 186.924c0-23.32 19.075-42.402 42.402-42.402L268.3 144.522l0 0.007-2.208 0 0 49.382 0 35.423 480.556 0 0-0.003 0-33.659 0-51.142 0-0.007 155.478 0c23.32 0 42.402 19.082 42.402 42.402l0 99.966 56.536 0L1001.064 172.79c0-46.643-38.164-84.803-84.803-84.803L746.648 87.987 746.648 42.852 746.648 31.454 746.648 3.181 266.092 3.181 266.092 46.39l0 41.596L96.48 87.986c-46.646 0-84.803 38.161-84.803 84.803l0 763.226c0 46.639 38.157 84.803 84.803 84.803l819.78 0c46.639 0 84.803-38.164 84.803-84.803L1001.063 550.138 944.528 550.138zM324.836 59.717l365.277 0 0 113.082L324.836 172.799 324.836 59.717z" p-id="7238" fill="#59607b"></path></svg>