<?xml version="1.0" standalone="no"?><!DOCTYPE svg PUBLIC "-//W3C//DTD SVG 1.1//EN" "http://www.w3.org/Graphics/SVG/1.1/DTD/svg11.dtd"><svg t="1505903230939" class="icon" style="" viewBox="0 0 1024 1024" version="1.1" xmlns="http://www.w3.org/2000/svg" p-id="15742" xmlns:xlink="http://www.w3.org/1999/xlink" width="200" height="200"><defs><style type="text/css"></style></defs><path d="M806.4 863.744c-14.336 0-25.6-11.264-25.6-25.6 0-160.768-93.184-297.984-222.208-326.144-11.264-2.56-19.456-12.288-19.968-23.552-0.512-11.264 6.656-22.016 17.408-25.6 54.784-18.432 91.648-70.144 91.648-128.512 0-74.24-60.928-134.656-135.68-134.656S376.832 260.096 376.832 334.848c0 57.856 36.864 109.056 91.136 128 10.752 3.584 17.92 14.336 17.408 25.6-0.512 11.264-8.704 20.992-19.968 23.552-129.024 27.648-223.232 164.864-223.232 326.144 0 14.336-11.264 25.6-25.6 25.6s-25.6-11.264-25.6-25.6c0-160.768 83.456-301.568 205.312-356.864-44.032-34.816-70.656-88.064-70.656-146.432C325.632 231.936 409.088 148.48 512 148.48c102.912 0 186.88 83.456 186.88 185.856 0 58.368-27.136 112.128-71.168 146.944 121.344 55.808 204.288 196.608 204.288 356.864 0 14.336-11.264 25.6-25.6 25.6z" p-id="15743" fill="#59607b"></path><path d="M511.488 600.576l42.496 197.12-42.496 67.584-42.496-67.584 42.496-197.12m0-46.592c-22.016 0-40.96 15.36-45.568 36.864l-42.496 197.12c-2.56 11.776-0.512 24.576 6.144 34.816l42.496 67.584c8.704 13.824 23.552 22.016 39.424 22.016s30.72-8.192 39.424-22.016l42.496-67.584c6.656-10.24 8.704-22.528 6.144-34.816l-42.496-197.12c-4.608-21.504-23.552-36.864-45.568-36.864z" p-id="15744" fill="#59607b"></path></svg>